<svg width="500" height="500" viewBox="0 0 500 500" fill="none" xmlns="http://www.w3.org/2000/svg">
  <!-- Внешний круг -->
  <circle cx="250" cy="250" r="235" stroke="white" stroke-width="6" fill="none"/>
  <circle cx="250" cy="250" r="218" stroke="white" stroke-width="1.5" fill="none" opacity="0.4"/>

  <!-- Волна внизу круга -->
  <path d="M80 310 Q130 280 180 310 Q230 340 280 310 Q330 280 380 310 Q400 322 420 310" 
        stroke="white" stroke-width="4" fill="none" stroke-linecap="round" opacity="0.6"/>
  <path d="M100 330 Q150 300 200 330 Q250 360 300 330 Q350 300 400 330" 
        stroke="white" stroke-width="3" fill="none" stroke-linecap="round" opacity="0.35"/>
  <path d="M120 350 Q170 325 220 350 Q270 375 320 350 Q370 325 390 345" 
        stroke="white" stroke-width="2" fill="none" stroke-linecap="round" opacity="0.2"/>

  <!-- Текст ИМО -->
  <text x="250" y="245" text-anchor="middle" dominant-baseline="central" 
        font-family="Arial Black, Arial, sans-serif" font-weight="900" font-size="145" 
        fill="white" letter-spacing="8">ИМО</text>

  <!-- Подпись ДВФУ -->
  <text x="250" y="395" text-anchor="middle" 
        font-family="Arial, sans-serif" font-weight="600" font-size="36" 
        fill="white" letter-spacing="18" opacity="0.7">ДВФУ</text>

  <!-- Компас — стрелка вверх (Север) -->
  <polygon points="250,55 244,78 256,78" fill="white" opacity="0.5"/>
</svg>
